<svg class="iconAbove" viewBox="2.140626 72.3408 294.6 156.6" xmlns="http://www.w3.org/2000/svg" data-v-fde0c5aa="" style="max-height: 500px" width="294.6" height="156.6"><defs data-v-fde0c5aa=""/><rect class="logo-background-square" height="300px" width="300px" y="0" x="0" fill="transparent" data-v-fde0c5aa=""/><defs data-v-fde0c5aa=""/><g transform="matrix(2.5873219801713194,0,0,2.5873219801713194,17.179818955252074,161.57438630790622)" fill="#000000" id="59ff0f22-b630-48e8-b4ce-a69ba8fd328c" data-v-fde0c5aa=""><path d="M2.50 11.31L6.39 11.31L6.39 12.41L2.50 12.41L2.50 15.96L4.30 15.96Q5.32 15.96 6.01 15.95Q6.70 15.93 7.11 15.86L7.11 15.86L7.11 17.09L1.09 17.09Q1.17 16.68 1.18 15.90Q1.20 15.13 1.20 14.12L1.20 14.12L1.20 10.08Q1.20 9.07 1.18 8.30Q1.17 7.52 1.09 7.11L1.09 7.11L6.90 7.11L6.90 8.24L2.50 8.24L2.50 11.31ZM13.43 17.09L11.59 14.52L9.81 17.09L8.27 17.09Q8.55 16.72 8.74 16.47Q8.93 16.22 9.08 16.02Q9.23 15.83 9.35 15.65Q9.48 15.47 9.64 15.24L9.64 15.24L10.86 13.48L9.78 11.96Q9.60 11.72 9.46 11.53Q9.32 11.34 9.16 11.14Q9.00 10.94 8.81 10.70Q8.61 10.46 8.34 10.12L8.34 10.12L9.91 10.12L11.69 12.58L13.36 10.12L14.90 10.12Q14.64 10.46 14.45 10.70Q14.27 10.94 14.12 11.15Q13.97 11.35 13.83 11.54Q13.70 11.73 13.54 11.96L13.54 11.96L12.42 13.60L13.60 15.24Q13.79 15.50 13.92 15.69Q14.06 15.87 14.21 16.06Q14.36 16.25 14.54 16.49Q14.72 16.73 15.00 17.09L15.00 17.09L13.43 17.09ZM17.67 13.16L17.67 15.31Q18.02 15.56 18.28 15.72Q18.53 15.88 18.74 15.97Q18.96 16.06 19.15 16.10Q19.35 16.13 19.58 16.13L19.58 16.13Q19.95 16.13 20.28 15.96Q20.61 15.79 20.87 15.47Q21.12 15.14 21.28 14.68Q21.43 14.22 21.43 13.64L21.43 13.64Q21.43 13.07 21.32 12.61Q21.22 12.15 21.01 11.82Q20.81 11.50 20.52 11.32Q20.23 11.14 19.86 11.14L19.86 11.14Q19.56 11.14 19.26 11.27Q18.95 11.40 18.66 11.66Q18.37 11.91 18.12 12.29Q17.86 12.67 17.67 13.16L17.67 13.16ZM16.06 10.12L17.29 10.12Q17.37 10.29 17.45 10.62Q17.52 10.94 17.57 11.42L17.57 11.42Q17.81 11.10 18.09 10.83Q18.38 10.57 18.69 10.38Q19.01 10.19 19.36 10.09Q19.71 9.98 20.10 9.98L20.10 9.98Q20.68 9.98 21.16 10.24Q21.64 10.49 21.98 10.95Q22.32 11.42 22.51 12.05Q22.70 12.68 22.70 13.43L22.70 13.43Q22.70 14.31 22.45 15.02Q22.20 15.72 21.78 16.22Q21.36 16.72 20.79 16.99Q20.23 17.26 19.58 17.26L19.58 17.26Q19.31 17.26 19.07 17.21Q18.83 17.15 18.60 17.06Q18.37 16.96 18.14 16.82Q17.92 16.68 17.67 16.51L17.67 16.51L17.67 18.12Q17.67 18.53 17.68 18.86Q17.69 19.19 17.71 19.47Q17.73 19.75 17.77 19.98Q17.80 20.22 17.84 20.44L17.84 20.44L16.41 20.44L16.41 13.77Q16.41 13.14 16.40 12.60Q16.39 12.05 16.35 11.60Q16.32 11.14 16.25 10.77Q16.18 10.40 16.06 10.12L16.06 10.12ZM30.11 13.77L25.26 13.77Q25.28 14.38 25.45 14.82Q25.61 15.26 25.90 15.56Q26.20 15.85 26.59 15.99Q26.98 16.13 27.45 16.13L27.45 16.13Q28.11 16.13 28.75 15.98Q29.38 15.83 30.01 15.45L30.01 15.45L30.15 16.58Q29.78 16.76 29.44 16.89Q29.09 17.02 28.74 17.10Q28.39 17.19 28.03 17.22Q27.67 17.26 27.28 17.26L27.28 17.26Q26.62 17.26 26.02 17.03Q25.43 16.80 24.98 16.35Q24.53 15.91 24.26 15.24Q23.99 14.58 23.99 13.71L23.99 13.71Q23.99 12.86 24.22 12.17Q24.45 11.48 24.88 11.00Q25.30 10.51 25.91 10.24Q26.52 9.98 27.28 9.98L27.28 9.98Q27.84 9.98 28.27 10.11Q28.70 10.25 29.01 10.48Q29.33 10.72 29.54 11.03Q29.75 11.35 29.88 11.71Q30.00 12.07 30.06 12.47Q30.11 12.86 30.11 13.24L30.11 13.24L30.11 13.51Q30.11 13.68 30.11 13.77L30.11 13.77ZM27.17 11.01L27.17 11.01Q26.42 11.01 25.94 11.45Q25.46 11.89 25.31 12.82L25.31 12.82L28.88 12.82Q28.88 12.38 28.76 12.04Q28.63 11.70 28.40 11.47Q28.17 11.24 27.86 11.12Q27.54 11.01 27.17 11.01ZM38.01 17.09L36.74 17.09L36.74 13.33Q36.74 12.69 36.66 12.27Q36.57 11.85 36.40 11.61Q36.24 11.37 35.98 11.27Q35.72 11.18 35.38 11.18L35.38 11.18Q35.01 11.18 34.65 11.35Q34.30 11.53 34.01 11.80Q33.71 12.08 33.49 12.43Q33.26 12.78 33.15 13.13L33.15 13.13L33.15 17.09L31.89 17.09L31.89 12.89Q31.89 11.87 31.78 11.17Q31.66 10.47 31.55 10.12L31.55 10.12L32.78 10.12Q32.82 10.23 32.86 10.40Q32.90 10.58 32.94 10.77Q32.97 10.96 33.00 11.14L33.00 11.14L33.05 11.45Q33.70 10.67 34.36 10.33Q35.03 9.98 35.75 9.98L35.75 9.98Q36.85 9.98 37.43 10.69Q38.01 11.41 38.01 12.82L38.01 12.82L38.01 17.09ZM44.64 10.53L44.40 11.72Q44.23 11.62 44.01 11.51Q43.79 11.40 43.53 11.30Q43.28 11.20 42.99 11.14Q42.70 11.07 42.38 11.07L42.38 11.07Q42.01 11.07 41.75 11.16Q41.49 11.24 41.34 11.36Q41.19 11.49 41.12 11.65Q41.05 11.81 41.05 11.96L41.05 11.96Q41.05 12.14 41.10 12.28Q41.16 12.41 41.33 12.53Q41.51 12.65 41.83 12.76Q42.15 12.87 42.69 12.99L42.69 12.99Q43.16 13.09 43.57 13.25Q43.98 13.41 44.28 13.66Q44.59 13.90 44.77 14.25Q44.95 14.59 44.95 15.07L44.95 15.07Q44.95 15.54 44.74 15.93Q44.54 16.33 44.18 16.63Q43.83 16.93 43.35 17.09Q42.87 17.26 42.31 17.26L42.31 17.26Q41.90 17.26 41.51 17.20Q41.13 17.14 40.79 17.03Q40.45 16.92 40.17 16.78Q39.89 16.63 39.68 16.47L39.68 16.47L40.02 15.24Q40.26 15.45 40.55 15.62Q40.84 15.79 41.15 15.91Q41.45 16.04 41.76 16.10Q42.08 16.17 42.35 16.17L42.35 16.17Q42.65 16.17 42.90 16.09Q43.15 16.01 43.33 15.88Q43.51 15.76 43.61 15.59Q43.72 15.42 43.72 15.24L43.72 15.24Q43.72 15.05 43.64 14.89Q43.56 14.72 43.35 14.56Q43.14 14.41 42.78 14.27Q42.41 14.12 41.84 13.98L41.84 13.98Q41.21 13.83 40.82 13.62Q40.43 13.42 40.21 13.17Q39.98 12.93 39.90 12.64Q39.82 12.35 39.82 12.03L39.82 12.03Q39.82 11.87 39.87 11.66Q39.92 11.45 40.04 11.22Q40.16 10.99 40.36 10.77Q40.55 10.55 40.84 10.37Q41.14 10.20 41.54 10.09Q41.93 9.98 42.45 9.98L42.45 9.98Q42.82 9.98 43.15 10.03Q43.47 10.08 43.74 10.15Q44.01 10.23 44.24 10.33Q44.46 10.43 44.64 10.53L44.64 10.53ZM52.29 13.77L47.44 13.77Q47.46 14.38 47.63 14.82Q47.80 15.26 48.09 15.56Q48.38 15.85 48.77 15.99Q49.16 16.13 49.63 16.13L49.63 16.13Q50.29 16.13 50.93 15.98Q51.56 15.83 52.19 15.45L52.19 15.45L52.33 16.58Q51.97 16.76 51.62 16.89Q51.27 17.02 50.92 17.10Q50.57 17.19 50.21 17.22Q49.85 17.26 49.46 17.26L49.46 17.26Q48.80 17.26 48.21 17.03Q47.61 16.80 47.16 16.35Q46.71 15.91 46.44 15.24Q46.18 14.58 46.18 13.71L46.18 13.71Q46.18 12.86 46.41 12.17Q46.63 11.48 47.06 11.00Q47.48 10.51 48.09 10.24Q48.70 9.98 49.46 9.98L49.46 9.98Q50.02 9.98 50.45 10.11Q50.88 10.25 51.19 10.48Q51.51 10.72 51.72 11.03Q51.93 11.35 52.06 11.71Q52.19 12.07 52.24 12.47Q52.29 12.86 52.29 13.24L52.29 13.24L52.29 13.51Q52.29 13.68 52.29 13.77L52.29 13.77ZM49.36 11.01L49.36 11.01Q48.60 11.01 48.13 11.45Q47.65 11.89 47.50 12.82L47.50 12.82L51.06 12.82Q51.06 12.38 50.94 12.04Q50.81 11.70 50.58 11.47Q50.35 11.24 50.04 11.12Q49.72 11.01 49.36 11.01ZM59.27 12.82L59.27 14.12Q59.27 14.62 59.27 15.07Q59.27 15.52 59.28 15.91Q59.29 16.29 59.32 16.59Q59.34 16.89 59.37 17.09L59.37 17.09L57.87 17.09Q57.94 16.68 57.96 15.90Q57.97 15.13 57.97 14.12L57.97 14.12L57.97 9.28Q57.97 8.80 57.96 8.38Q57.95 7.97 57.93 7.64Q57.91 7.31 57.87 7.11L57.87 7.11Q58.22 7.10 58.65 7.08L58.65 7.08Q59.02 7.06 59.53 7.05Q60.03 7.04 60.63 7.04L60.63 7.04Q61.43 7.04 62.09 7.20Q62.75 7.36 63.23 7.70Q63.70 8.04 63.96 8.57Q64.22 9.11 64.22 9.84L64.22 9.84Q64.22 10.47 64.03 10.94Q63.83 11.42 63.52 11.77Q63.20 12.11 62.79 12.34Q62.39 12.56 61.97 12.68L61.97 12.68Q62.18 12.96 62.48 13.37Q62.77 13.77 63.11 14.23Q63.45 14.68 63.80 15.15Q64.14 15.62 64.44 16.02Q64.74 16.41 64.97 16.70Q65.19 16.99 65.28 17.09L65.28 17.09L63.54 17.09L60.66 12.82L59.27 12.82ZM59.27 8.17L59.27 11.76L60.57 11.76Q61.73 11.76 62.33 11.28Q62.92 10.80 62.92 9.95L62.92 9.95Q62.92 9.51 62.79 9.17Q62.66 8.83 62.37 8.60Q62.09 8.37 61.64 8.25Q61.20 8.13 60.57 8.13L60.57 8.13Q60.20 8.13 59.87 8.15Q59.54 8.16 59.27 8.17L59.27 8.17ZM72.45 13.77L67.61 13.77Q67.63 14.38 67.80 14.82Q67.96 15.26 68.25 15.56Q68.54 15.85 68.94 15.99Q69.33 16.13 69.79 16.13L69.79 16.13Q70.46 16.13 71.09 15.98Q71.73 15.83 72.36 15.45L72.36 15.45L72.50 16.58Q72.13 16.76 71.78 16.89Q71.44 17.02 71.09 17.10Q70.74 17.19 70.38 17.22Q70.02 17.26 69.62 17.26L69.62 17.26Q68.97 17.26 68.37 17.03Q67.78 16.80 67.33 16.35Q66.88 15.91 66.61 15.24Q66.34 14.58 66.34 13.71L66.34 13.71Q66.34 12.86 66.57 12.17Q66.80 11.48 67.22 11.00Q67.65 10.51 68.26 10.24Q68.87 9.98 69.62 9.98L69.62 9.98Q70.18 9.98 70.62 10.11Q71.05 10.25 71.36 10.48Q71.67 10.72 71.89 11.03Q72.10 11.35 72.23 11.71Q72.35 12.07 72.41 12.47Q72.46 12.86 72.46 13.24L72.46 13.24L72.46 13.51Q72.46 13.68 72.45 13.77L72.45 13.77ZM69.52 11.01L69.52 11.01Q68.77 11.01 68.29 11.45Q67.81 11.89 67.66 12.82L67.66 12.82L71.23 12.82Q71.23 12.38 71.10 12.04Q70.98 11.70 70.75 11.47Q70.52 11.24 70.21 11.12Q69.89 11.01 69.52 11.01ZM79.37 15.31L79.50 16.51Q79.24 16.71 78.99 16.85Q78.73 16.99 78.45 17.08Q78.17 17.17 77.85 17.22Q77.53 17.26 77.14 17.26L77.14 17.26Q76.45 17.26 75.85 17.02Q75.25 16.78 74.80 16.32Q74.35 15.86 74.09 15.21Q73.83 14.56 73.83 13.74L73.83 13.74Q73.83 12.97 74.08 12.28Q74.33 11.60 74.79 11.09Q75.25 10.58 75.91 10.28Q76.57 9.98 77.38 9.98L77.38 9.98Q78.07 9.98 78.56 10.14Q79.06 10.30 79.43 10.56L79.43 10.56L79.19 11.79Q78.73 11.45 78.27 11.28Q77.81 11.11 77.28 11.11L77.28 11.11Q76.82 11.11 76.43 11.28Q76.04 11.46 75.75 11.79Q75.46 12.11 75.29 12.59Q75.13 13.07 75.13 13.67L75.13 13.67Q75.13 14.23 75.28 14.68Q75.43 15.13 75.71 15.45Q75.99 15.78 76.38 15.96Q76.78 16.13 77.28 16.13L77.28 16.13Q77.90 16.13 78.41 15.92Q78.91 15.71 79.37 15.31L79.37 15.31ZM82.07 13.64L82.07 13.64Q82.07 14.23 82.21 14.70Q82.35 15.18 82.62 15.50Q82.88 15.83 83.24 16.00Q83.60 16.17 84.05 16.17L84.05 16.17Q84.46 16.17 84.82 16.00Q85.18 15.83 85.45 15.50Q85.72 15.18 85.88 14.70Q86.03 14.23 86.03 13.64L86.03 13.64Q86.03 13.04 85.89 12.56Q85.74 12.09 85.48 11.75Q85.22 11.42 84.85 11.25Q84.49 11.07 84.05 11.07L84.05 11.07Q83.63 11.07 83.27 11.25Q82.91 11.42 82.64 11.75Q82.37 12.09 82.22 12.56Q82.07 13.04 82.07 13.64ZM80.80 13.64L80.80 13.64Q80.80 12.76 81.07 12.08Q81.33 11.40 81.79 10.93Q82.24 10.46 82.84 10.22Q83.44 9.98 84.12 9.98L84.12 9.98Q84.82 9.98 85.40 10.22Q85.99 10.46 86.41 10.93Q86.83 11.40 87.06 12.08Q87.29 12.76 87.29 13.64L87.29 13.64Q87.29 14.52 87.03 15.20Q86.76 15.87 86.31 16.33Q85.86 16.79 85.26 17.02Q84.66 17.26 83.98 17.26L83.98 17.26Q83.28 17.26 82.69 17.02Q82.11 16.79 81.69 16.33Q81.27 15.87 81.03 15.20Q80.80 14.52 80.80 13.64ZM90.27 17.09L89.00 17.09L89.00 12.89Q89.00 11.87 88.89 11.17Q88.78 10.47 88.66 10.12L88.66 10.12L89.89 10.12Q89.93 10.23 89.97 10.40Q90.02 10.58 90.05 10.77Q90.08 10.96 90.11 11.14L90.11 11.14L90.17 11.45Q90.41 11.09 90.70 10.82Q90.99 10.55 91.29 10.36Q91.59 10.17 91.87 10.08Q92.16 9.98 92.39 9.98L92.39 9.98Q92.82 9.98 93.12 10.17Q93.41 10.36 93.60 10.67Q93.79 10.99 93.87 11.41Q93.96 11.82 93.96 12.27L93.96 12.27L92.87 12.51Q92.87 12.26 92.82 12.02Q92.77 11.79 92.67 11.60Q92.58 11.42 92.43 11.32Q92.29 11.21 92.08 11.21L92.08 11.21Q91.86 11.21 91.59 11.38Q91.33 11.55 91.07 11.82Q90.82 12.09 90.60 12.43Q90.38 12.78 90.27 13.13L90.27 13.13L90.27 17.09ZM99.80 14.36L99.80 11.66Q99.55 11.52 99.33 11.42Q99.11 11.33 98.90 11.27Q98.69 11.20 98.47 11.17Q98.25 11.14 97.99 11.14L97.99 11.14Q97.60 11.14 97.25 11.32Q96.89 11.50 96.62 11.83Q96.34 12.17 96.17 12.65Q96.01 13.13 96.01 13.74L96.01 13.74Q96.01 14.94 96.42 15.55Q96.82 16.17 97.72 16.17L97.72 16.17Q98.03 16.17 98.35 16.01Q98.66 15.85 98.93 15.60Q99.21 15.35 99.44 15.02Q99.66 14.70 99.80 14.36L99.80 14.36ZM101.07 6.15L101.07 13.47Q101.07 14.76 101.22 15.64Q101.36 16.52 101.58 17.09L101.58 17.09L100.35 17.09Q100.28 16.91 100.17 16.56Q100.06 16.21 99.98 15.83L99.98 15.83Q99.48 16.52 98.86 16.89Q98.24 17.26 97.48 17.26L97.48 17.26Q96.85 17.26 96.35 17.02Q95.85 16.79 95.49 16.35Q95.13 15.92 94.94 15.31Q94.75 14.70 94.75 13.95L94.75 13.95Q94.75 13.04 95.00 12.30Q95.25 11.57 95.68 11.06Q96.12 10.54 96.71 10.26Q97.30 9.98 97.99 9.98L97.99 9.98Q98.21 9.98 98.45 10.03Q98.68 10.08 98.92 10.16Q99.16 10.24 99.38 10.35Q99.61 10.45 99.80 10.56L99.80 10.56L99.80 8.65Q99.80 7.82 99.77 7.20Q99.73 6.58 99.63 6.15L99.63 6.15L101.07 6.15Z"/></g><defs data-v-fde0c5aa=""/><g transform="matrix(0.14390039893289422,0,0,0.14390039893289422,107.7030669571624,80.65590917841332)" fill="#1C4A77" stroke="none" id="52feaf3d-9b28-4b71-94ae-ca7ffd1368a3" data-v-fde0c5aa=""><path d="M293.932 33.946c-141.9 0-256.935 115.035-256.935 256.935 0 141.899 115.034 256.932 256.935 256.932 141.899 0 256.935-115.032 256.935-256.932-.001-141.901-115.036-256.935-256.935-256.935zm20.287 394.9v45.988h-44.186v-42.843c-30.206-1.347-59.509-9.458-76.643-19.379l13.521-52.753c18.941 10.374 45.541 19.837 74.845 19.837 25.697 0 43.281-9.915 43.281-27.954 0-17.129-14.424-27.95-47.79-39.218-48.241-16.233-81.154-38.78-81.154-82.516 0-39.675 27.952-70.78 76.196-80.254v-42.826h44.181v39.675c30.213 1.353 50.499 7.665 65.381 14.882l-13.078 50.943c-11.723-4.961-32.462-15.324-64.922-15.324-29.307 0-38.778 12.62-38.778 25.24 0 14.887 15.781 24.346 54.104 38.78 53.655 18.934 75.294 43.726 75.294 84.306 0 40.127-28.407 74.394-80.252 83.416z"/></g></svg>